<svg width="20" height="27" viewBox="0 0 20 27" fill="none" xmlns="http://www.w3.org/2000/svg">
<path d="M0.617375 20.628C3.83338 18.228 6.37738 16.056 8.24938 14.112C10.1214 12.144 11.0574 10.308 11.0574 8.604C11.0574 8.028 10.9254 7.584 10.6614 7.272C10.4214 6.96 10.0974 6.804 9.68938 6.804C9.20938 6.804 8.82538 7.056 8.53738 7.56C8.27338 8.04 8.17738 8.784 8.24938 9.792H0.509375C0.581375 7.56 1.06138 5.724 1.94938 4.284C2.86138 2.844 4.03738 1.788 5.47738 1.116C6.91738 0.443999 8.50138 0.107999 10.2294 0.107999C13.3014 0.107999 15.5454 0.851998 16.9614 2.34C18.4014 3.804 19.1214 5.688 19.1214 7.992C19.1214 10.416 18.3414 12.696 16.7814 14.832C15.2454 16.944 13.3134 18.732 10.9854 20.196H19.2294V26.64H0.617375V20.628Z" fill="white"/>
</svg>
