<svg width="20" height="28" viewBox="0 0 20 28" fill="none" xmlns="http://www.w3.org/2000/svg">
<path d="M0.471563 8.928C0.543563 6.072 1.37156 3.888 2.95556 2.376C4.56356 0.863999 6.83156 0.107999 9.75956 0.107999C11.6556 0.107999 13.2756 0.431999 14.6196 1.08C15.9636 1.728 16.9716 2.604 17.6436 3.708C18.3396 4.812 18.6876 6.06 18.6876 7.452C18.6876 9.132 18.2916 10.452 17.4996 11.412C16.7076 12.348 15.8196 12.984 14.8356 13.32V13.464C17.7156 14.544 19.1556 16.548 19.1556 19.476C19.1556 21.012 18.7956 22.368 18.0756 23.544C17.3556 24.72 16.3236 25.632 14.9796 26.28C13.6596 26.928 12.0876 27.252 10.2636 27.252C7.14356 27.252 4.69556 26.508 2.91956 25.02C1.14356 23.532 0.231563 21.204 0.183563 18.036H7.95956C7.91156 18.9 8.03156 19.56 8.31956 20.016C8.63156 20.448 9.15956 20.664 9.90356 20.664C10.3356 20.664 10.6956 20.508 10.9836 20.196C11.2716 19.86 11.4156 19.428 11.4156 18.9C11.4156 18.228 11.1876 17.724 10.7316 17.388C10.2996 17.028 9.55556 16.848 8.49956 16.848H7.16756V10.404H8.46356C10.0956 10.5 10.9116 9.852 10.9116 8.46C10.9116 7.86 10.7796 7.416 10.5156 7.128C10.2756 6.84 9.96356 6.696 9.57956 6.696C8.69156 6.696 8.24756 7.44 8.24756 8.928H0.471563Z" fill="white"/>
</svg>
