<svg width="20" height="27" viewBox="0 0 20 27" fill="none" xmlns="http://www.w3.org/2000/svg">
<path d="M18.2584 7.704H7.81837V10.728C8.27438 10.32 8.86238 9.996 9.58238 9.756C10.3264 9.516 11.1544 9.396 12.0664 9.396C13.6984 9.396 15.0784 9.78 16.2064 10.548C17.3344 11.316 18.1744 12.348 18.7264 13.644C19.2784 14.916 19.5544 16.332 19.5544 17.892C19.5544 20.772 18.7384 23.016 17.1064 24.624C15.4984 26.208 13.2784 27 10.4464 27C8.38238 27 6.59438 26.64 5.08238 25.92C3.59438 25.2 2.45438 24.204 1.66238 22.932C0.894375 21.66 0.534375 20.208 0.582375 18.576H8.35838C8.35838 18.96 8.49038 19.32 8.75438 19.656C9.01838 19.992 9.45038 20.16 10.0504 20.16C10.6504 20.16 11.0944 19.944 11.3824 19.512C11.6704 19.08 11.8144 18.492 11.8144 17.748C11.8144 17.052 11.6464 16.524 11.3104 16.164C10.9984 15.804 10.5424 15.624 9.94238 15.624C9.43838 15.624 9.05438 15.744 8.79038 15.984C8.52638 16.224 8.39438 16.5 8.39438 16.812H0.618375V0.684H18.2584V7.704Z" fill="white"/>
</svg>
