<svg width="20" height="28" viewBox="0 0 20 28" fill="none" xmlns="http://www.w3.org/2000/svg">
<path d="M11.3588 8.676C11.2148 7.956 10.9988 7.428 10.7108 7.092C10.4468 6.756 10.0268 6.588 9.45075 6.588C8.53875 6.588 7.92675 7.056 7.61475 7.992C7.32675 8.904 7.18275 10.332 7.18275 12.276C7.61475 11.604 8.23875 11.076 9.05475 10.692C9.87075 10.308 10.7948 10.116 11.8268 10.116C14.1308 10.116 15.9668 10.824 17.3348 12.24C18.7268 13.656 19.4228 15.708 19.4228 18.396C19.4228 20.196 19.0388 21.768 18.2708 23.112C17.5268 24.432 16.4588 25.452 15.0668 26.172C13.6748 26.892 12.0308 27.252 10.1348 27.252C6.36675 27.252 3.75075 26.1 2.28675 23.796C0.82275 21.468 0.09075 18.216 0.09075 14.04C0.09075 10.776 0.42675 8.136 1.09875 6.12C1.77075 4.104 2.82675 2.616 4.26675 1.656C5.73075 0.695999 7.62675 0.215999 9.95475 0.215999C12.8108 0.215999 14.9588 1.032 16.3987 2.664C17.8628 4.296 18.6668 6.3 18.8108 8.676H11.3588ZM9.84675 16.236C9.19875 16.236 8.68275 16.416 8.29875 16.776C7.91475 17.136 7.72275 17.64 7.72275 18.288C7.72275 19.008 7.90275 19.548 8.26275 19.908C8.64675 20.244 9.17475 20.412 9.84675 20.412C10.5188 20.412 11.0348 20.244 11.3948 19.908C11.7788 19.548 11.9708 19.008 11.9708 18.288C11.9708 17.64 11.7788 17.136 11.3948 16.776C11.0108 16.416 10.4948 16.236 9.84675 16.236Z" fill="white"/>
</svg>
